<svg xmlns="http://www.w3.org/2000/svg" version="1.1" id="Layer_1" x="0" y="0" width="32" height="32" viewBox="0 0 32 32" enable-background="new 0 0 32 32" xml:space="preserve"><path fill="#FFFFFF" stroke="#666666" stroke-miterlimit="10" d="M24.3 14.3L14.7 4.7c-0.9-0.9-2.3-0.9-3.2 0l-0.8 0.8c-0.9 0.9-0.9 2.3 0 3.2L18 16l-7.3 7.3c-0.9 0.9-0.9 2.3 0 3.2l0.8 0.8c0.9 0.9 2.3 0.9 3.2 0l9.6-9.6c0.5-0.5 0.7-1.1 0.6-1.7C25 15.4 24.8 14.7 24.3 14.3z"/><path fill="#FFFFFF" stroke="#666666" stroke-miterlimit="10" d="M-28.5 16c0 0.6 0.2 1.3 0.6 1.7l9.6 9.6c0.9 0.9 2.3 0.9 3.2 0l0.8-0.8c0.9-0.9 0.9-2.3 0-3.2L-21.6 16l7.3-7.3c0.9-0.9 0.9-2.3 0-3.2l-0.8-0.8c-0.9-0.9-2.3-0.9-3.2 0l-9.6 9.6C-28.3 14.7-28.5 15.4-28.5 16z"/></svg>