<?xml version="1.0" encoding="utf-8"?>
<!-- Generator: Adobe Illustrator 16.0.4, SVG Export Plug-In . SVG Version: 6.00 Build 0)  -->
<!DOCTYPE svg PUBLIC "-//W3C//DTD SVG 1.1//EN" "http://www.w3.org/Graphics/SVG/1.1/DTD/svg11.dtd">
<svg version="1.1" id="Layer_1" xmlns="http://www.w3.org/2000/svg" xmlns:xlink="http://www.w3.org/1999/xlink" x="0px" y="0px"
	 width="64px" height="64px" viewBox="173 273.5 64 64" enable-background="new 173 273.5 64 64" xml:space="preserve">
<rect x="186.831" y="288.996" fill="#333333" width="36.116" height="35.372"/>
<g>
	<path fill="#FFFFFF" d="M205,277c-16.015,0-29,12.985-29,29c0,16.016,12.985,29,29,29c16.016,0,29-12.984,29-29
		C234,289.985,221.016,277,205,277z M219.021,315.774c0.193,0.194,0.297,0.453,0.297,0.725c0,0.272-0.104,0.544-0.297,0.726
		l-2.797,2.81c-0.207,0.207-0.466,0.298-0.726,0.298c-0.259,0-0.53-0.104-0.725-0.298L205,310.246l-9.762,9.801
		c-0.194,0.207-0.466,0.297-0.725,0.297c-0.259,0-0.531-0.103-0.725-0.297l-2.797-2.81c-0.194-0.194-0.298-0.453-0.298-0.725
		c0-0.272,0.104-0.544,0.298-0.726l9.801-9.839l-9.827-9.71c-0.401-0.401-0.401-1.062,0-1.463l2.797-2.81
		c0.194-0.194,0.453-0.298,0.725-0.298c0.272,0,0.531,0.104,0.725,0.298l9.8,9.671l9.8-9.671c0.195-0.194,0.453-0.298,0.726-0.298
		c0.271,0,0.531,0.104,0.725,0.298l2.797,2.81c0.401,0.401,0.401,1.062,0,1.463l-9.825,9.71L219.021,315.774z"/>
</g>
</svg>
