<svg xmlns="http://www.w3.org/2000/svg" version="1.1" id="Layer_1" x="0" y="0" width="180" height="60.7" viewBox="0 0 180 60.7" enable-background="new 0 0 180 60.65" xml:space="preserve"><path fill="#439A4D" d="M179 56.7c0 2.2-1.8 4-4 4H4c-2.2 0-4-1.8-4-4v-48c0-2.2 1.8-4 4-4h171c2.2 0 4 1.8 4 4V56.7z"/><path fill="#6EC173" d="M179 52c0 2.2-1.8 4-4 4H4c-2.2 0-4-1.8-4-4V4c0-2.2 1.8-4 4-4h171c2.2 0 4 1.8 4 4V52z"/><circle fill="#FFFFFF" cx="4.8" cy="4.6" r="2.4"/><circle fill="#FFFFFF" cx="4.8" cy="51.2" r="2.4"/><circle fill="#FFFFFF" cx="174.3" cy="51.2" r="2.4"/><circle fill="#FFFFFF" cx="174.3" cy="4.8" r="2.4"/></svg>