<svg xmlns="http://www.w3.org/2000/svg" xmlns:xlink="http://www.w3.org/1999/xlink" version="1.1" id="Layer_1" x="0" y="0" width="24" height="24" viewBox="0 0 60 60" enable-background="new 0 0 60 60" xml:space="preserve">
  <g id="Icon_Pencil">
    <path fill="#ffffff" d="M0.7 59.7l5-20.3L36.4 8.7l15.1 15.1L20.8 54.5 0.7 59.7zM9.2 41.4L5.9 54.3l12.8-3.3 27.4-27.4 -9.7-9.7L9.2 41.4zM17.7 53.5c-1.2-5.2-5.4-9.3-10.6-10.6l1-3.7c6.6 1.7 11.8 6.8 13.5 13.5L17.7 53.5z"/>
    <rect x="27.5" y="12.1" transform="matrix(-0.7067 -0.7075 0.7075 -0.7067 28.1786 73.9633)" fill="#ffffff" width="3.9" height="38.1"/>
    <path fill="#ffffff" d="M3.4 57l6-1.4C8.8 53.3 7.2 51.6 4.9 51L3.4 57zM53.2 22.4L38 7.2l6-6 1 0.2c7.3 1 13.1 6.8 14.1 14.1l0.2 1L53.2 22.4zM43.4 7.2l9.7 9.7 1.9-1.9c-1-4.8-4.8-8.7-9.7-9.7L43.4 7.2z"/>
  </g>
</svg>
