<?xml version="1.0" encoding="utf-8"?>
<!-- Generator: Adobe Illustrator 16.0.4, SVG Export Plug-In . SVG Version: 6.00 Build 0)  -->
<!DOCTYPE svg PUBLIC "-//W3C//DTD SVG 1.1//EN" "http://www.w3.org/Graphics/SVG/1.1/DTD/svg11.dtd">
<svg version="1.1" id="Layer_1" xmlns="http://www.w3.org/2000/svg" xmlns:xlink="http://www.w3.org/1999/xlink" x="0px" y="0px"
	 width="60px" height="60px" viewBox="0 0 60 60" enable-background="new 0 0 60 60" xml:space="preserve">
<g id="Icon_Pencil">
	<path fill="#4F88C7" d="M0.746,59.678l4.972-20.31L36.395,8.694l15.125,15.13L20.849,54.498L0.746,59.678z M9.241,41.441
		L5.926,54.285l12.849-3.315l27.355-27.353l-9.736-9.739L9.241,41.441z"/>
	<path fill="#4F88C7" d="M17.739,53.459c-1.245-5.181-5.388-9.326-10.568-10.568l1.037-3.73c6.63,1.657,11.812,6.838,13.47,13.473
		L17.739,53.459z"/>
	
		<rect x="27.453" y="12.076" transform="matrix(-0.7067 -0.7075 0.7075 -0.7067 28.1786 73.9633)" fill="#4F88C7" width="3.936" height="38.129"/>
	<path fill="#4F88C7" d="M3.44,56.981l6.009-1.449C8.828,53.251,7.17,51.594,4.89,50.97L3.44,56.981z"/>
	<path fill="#4F88C7" d="M53.177,22.373L38.046,7.245l6.012-6.012l1.034,0.208c7.259,1.037,13.057,6.84,14.097,14.093l0.207,1.034
		L53.177,22.373z M43.439,7.245l9.737,9.739l1.865-1.865c-1.039-4.767-4.77-8.703-9.737-9.739L43.439,7.245z"/>
</g>
</svg>
