<svg xmlns="http://www.w3.org/2000/svg" xmlns:xlink="http://www.w3.org/1999/xlink" version="1.1" id="Layer_1" x="0" y="0" width="24" height="24" viewBox="0 0 60 60" enable-background="new 0 0 60 60" xml:space="preserve">
  <g id="Icon_User">
    <path fill="#ffffff" d="M29.4 59.4C13.2 59.4 0 46.2 0 30 0 13.8 13.2 0.6 29.4 0.6 45.6 0.6 58.8 13.8 58.8 30 58.8 46.2 45.6 59.4 29.4 59.4zM29.4 3.8c-14.4 0-26.3 11.8-26.3 26.3 0 14.4 11.8 26.3 26.3 26.3 14.4 0 26.3-11.8 26.3-26.3C55.7 15.6 43.8 3.8 29.4 3.8zM12.2 51.3l-3-1.2c0.9-2.1 3.5-3.3 6.6-4.7 3-1.4 6.6-3 6.6-4.9v-2.6c-1-0.9-2.8-2.8-3.1-5.6 -0.9-0.9-2.3-2.4-2.3-4.5 0-1.2 0.5-2.3 0.9-2.8 -0.2-1.4-0.7-4-0.7-6.1 0-6.8 4.7-11.1 12-11.1 2.1 0 4.7 0.5 6.1 2.1 3.3 0.5 5.9 4.5 5.9 9 0 3-0.5 5.4-0.9 6.6 0.3 0.5 0.7 1.4 0.7 2.4 0 2.3-1.2 3.8-2.3 4.5 -0.3 2.8-1.9 4.7-3 5.6v2.6c0 1.7 3 2.8 5.9 3.8 3.3 1.2 6.8 2.4 7.8 5.4l-3 1.2c-0.5-1.4-3.5-2.4-5.9-3.5 -3.8-1.4-8-3-8-7V36.3l0.7-0.5c0 0 2.3-1.4 2.3-4.3v-1l1-0.3c0.2 0 1.2-0.5 1.2-2.1 0-0.5-0.3-1-0.5-1l-0.5-0.7 0.3-0.9c0 0 0.9-2.8 0.9-6.3 0-3.1-1.7-5.9-3.7-5.9h-0.9l-0.5-0.9c-0.3-0.5-1.7-1.2-3.8-1.2 -5.6 0-8.9 3-8.9 8 0 2.4 0.9 6.1 0.9 6.3l0.2 0.9 -0.7 0.7 0 0c0 0-0.5 0.5-0.5 1.2 0 0.9 1 2.1 1.6 2.4l0.7 0.5v0.9c0 2.6 2.3 4.2 2.4 4.2l0.7 0.5v4.3c0 4-4.5 6.1-8.5 7.8C15.1 49.2 12.5 50.4 12.2 51.3z"/>
  </g>
</svg>
