<?xml version="1.0" encoding="utf-8"?>
<!-- Generator: Adobe Illustrator 16.0.4, SVG Export Plug-In . SVG Version: 6.00 Build 0)  -->
<!DOCTYPE svg PUBLIC "-//W3C//DTD SVG 1.1//EN" "http://www.w3.org/Graphics/SVG/1.1/DTD/svg11.dtd">
<svg version="1.1" id="Layer_1" xmlns="http://www.w3.org/2000/svg" xmlns:xlink="http://www.w3.org/1999/xlink" x="0px" y="0px"
	 width="60px" height="60px" viewBox="0 0 60 60" enable-background="new 0 0 60 60" xml:space="preserve">
<g id="Icon_User">
	<path fill="#4F88C7" d="M29.402,59.429C13.22,59.429,0,46.204,0,30.026C0,13.847,13.22,0.624,29.402,0.624
		C45.58,0.624,58.8,13.847,58.8,30.026C58.8,46.204,45.58,59.429,29.402,59.429z M29.402,3.756
		c-14.442,0-26.271,11.831-26.271,26.271c0,14.441,11.829,26.271,26.271,26.271c14.437,0,26.266-11.829,26.266-26.271
		C55.668,15.587,43.839,3.756,29.402,3.756z"/>
	<path fill="#4F88C7" d="M12.178,51.25l-2.962-1.217c0.873-2.089,3.481-3.306,6.613-4.697c2.961-1.392,6.612-2.957,6.612-4.872
		v-2.608c-1.047-0.868-2.783-2.782-3.132-5.567c-0.868-0.87-2.264-2.437-2.264-4.523c0-1.219,0.523-2.261,0.873-2.785
		c-0.175-1.391-0.694-4-0.694-6.089c0-6.785,4.698-11.133,11.999-11.133c2.089,0,4.698,0.521,6.093,2.087
		c3.302,0.523,5.915,4.523,5.915,9.046c0,2.959-0.523,5.394-0.868,6.613c0.345,0.521,0.693,1.391,0.693,2.436
		c0,2.261-1.222,3.827-2.26,4.522c-0.349,2.781-1.914,4.695-2.961,5.563v2.613c0,1.74,2.961,2.782,5.914,3.829
		c3.307,1.217,6.787,2.434,7.829,5.392l-2.957,1.217c-0.523-1.392-3.477-2.435-5.914-3.477c-3.825-1.396-8.004-2.962-8.004-6.961
		V36.29l0.697-0.523c0,0,2.265-1.392,2.265-4.349v-1.045l1.037-0.347c0.18,0,1.222-0.521,1.222-2.087
		c0-0.524-0.349-1.045-0.523-1.045l-0.519-0.696l0.349-0.87c0,0,0.868-2.783,0.868-6.263c0-3.132-1.74-5.915-3.655-5.915h-0.872
		l-0.52-0.87c-0.349-0.521-1.74-1.217-3.83-1.217c-5.565,0-8.867,2.957-8.867,8.001c0,2.436,0.868,6.089,0.868,6.263l0.17,0.87
		l-0.693,0.696l0,0c0,0-0.523,0.521-0.523,1.217c0,0.87,1.047,2.089,1.565,2.436l0.698,0.521v0.87c0,2.611,2.264,4.177,2.434,4.177
		l0.698,0.523v4.349c0,4-4.523,6.089-8.527,7.829C15.135,49.165,12.527,50.383,12.178,51.25z"/>
</g>
</svg>
