<svg xmlns="http://www.w3.org/2000/svg" xmlns:xlink="http://www.w3.org/1999/xlink" width="30" height="28" viewBox="0 0 60 60" version="1.1">
  <title>
    notebook-text
  </title>
  <g id="Page-1" stroke="none" stroke-width="1" fill="none" fill-rule="evenodd">
    <g id="if_icon-52-notebook-text_314892" fill-rule="nonzero" stroke="#FFFFFF">
      <path d="M24.76 0.5L23.66 0.5 23.66 2.62 16.34 2.62 16.34 0.5 15.24 0.5 15.24 2.62 7.92 2.62 7.92 0.5 6.82 0.5 6.82 2.62 4.21 2.62C2.15 2.62 0.5 4.28 0.5 6.35L0.5 50.76C0.5 52.83 2.16 54.5 4.21 54.5L35.79 54.5C37.85 54.5 39.5 52.84 39.5 50.76L39.5 6.35C39.5 4.29 37.84 2.62 35.79 2.62L33.18 2.62 33.18 0.5 32.08 0.5 32.08 2.62 24.76 2.62 24.76 0.5ZM32.15 5.63L33.26 5.63 33.26 3.5 35.88 3.5C37.32 3.5 38.5 4.69 38.5 6.14L38.5 50.86C38.5 52.33 37.34 53.5 35.88 53.5L4.12 53.5C2.68 53.5 1.5 52.31 1.5 50.86L1.5 6.14C1.5 4.67 2.66 3.5 4.12 3.5L6.74 3.5 6.74 5.63 7.85 5.63 7.85 3.5 15.21 3.5 15.21 5.63 16.32 5.63 16.32 3.5 23.68 3.5 23.68 5.63 24.79 5.63 24.79 3.5 32.15 3.5 32.15 5.63ZM6.5 13.5L6.5 14.5 32.5 14.5 32.5 13.5 6.5 13.5ZM6.5 19.5L6.5 20.5 32.5 20.5 32.5 19.5 6.5 19.5ZM6.5 26.5L6.5 27.5 32.5 27.5 32.5 26.5 6.5 26.5ZM6.5 31.5L6.5 32.5 32.5 32.5 32.5 31.5 6.5 31.5ZM6.5 38.5L6.5 39.5 32.5 39.5 32.5 38.5 6.5 38.5ZM6.5 44.5L6.5 45.5 32.5 45.5 32.5 44.5 6.5 44.5Z" id="notebook-text"/>
    </g>
  </g>
</svg>
