<svg xmlns="http://www.w3.org/2000/svg" xmlns:xlink="http://www.w3.org/1999/xlink" version="1.1" id="Layer_1" x="0" y="0" width="24" height="24" viewBox="0 0 60 60" enable-background="new 0 0 60 60" xml:space="preserve"><g id="Icon_Envelope"><path fill="#ffffff" d="M59.3 13.4l-2.3-2.3L35.1 33c-2.8 2.8-7.4 2.8-10.2 0L3 11.1 0.8 13.4l16.3 16.3L0.8 46l2.3 2.3 16.3-16.3 3.2 3.2c1.9 1.9 4.6 3 7.4 3 2.8 0 5.4-1.1 7.4-3l3.2-3.2 16.3 16.3 2.3-2.3 -16.3-16.3L59.3 13.4z"/><path fill="#ffffff" d="M54.6 52.4H5.5c-3 0-5.3-2.3-5.3-5.3v-35c0-3 2.3-5.3 5.3-5.3h49.1c3 0 5.3 2.3 5.3 5.3v35.1C59.8 50.2 57.5 52.4 54.6 52.4zM5.5 10.4c-1.1 0-1.8 0.7-1.8 1.8v35.1c0 1.1 0.7 1.7 1.8 1.7h49.1c1.1 0 1.8-0.7 1.8-1.7v-35c0-1.1-0.7-1.8-1.8-1.8H5.5z"/></g></svg>