<?xml version="1.0" encoding="UTF-8"?>
<svg width="40px" height="55px" viewBox="0 0 40 55" version="1.1" xmlns="http://www.w3.org/2000/svg" xmlns:xlink="http://www.w3.org/1999/xlink">
    <!-- Generator: Sketch 48.1 (47250) - http://www.bohemiancoding.com/sketch -->
    <title>notebook-text</title>
    <desc>Created with Sketch.</desc>
    <defs></defs>
    <g id="Page-1" stroke="none" stroke-width="1" fill="none" fill-rule="evenodd">
        <g id="if_icon-52-notebook-text_314892" fill-rule="nonzero" stroke="#FFFFFF">
            <path d="M24.7631579,0.5 L23.6578947,0.5 L23.6578947,2.61538462 L16.3421053,2.61538462 L16.3421053,0.5 L15.2368421,0.5 L15.2368421,2.61538462 L7.92105263,2.61538462 L7.92105263,0.5 L6.81578947,0.5 L6.81578947,2.61538462 L4.20509876,2.61538462 C2.15414419,2.61538462 0.5,4.27843553 0.5,6.35375836 L0.5,50.7616262 C0.5,52.8297384 2.1552282,54.5 4.20509876,54.5 L35.7949013,54.5 C37.8458559,54.5 39.5,52.8369492 39.5,50.7616262 L39.5,6.35375836 C39.5,4.28564613 37.8447718,2.61538462 35.7949013,2.61538462 L33.1842105,2.61538462 L33.1842105,0.5 L32.0789474,0.5 L32.0789474,2.61538462 L24.7631579,2.61538462 L24.7631579,0.5 Z M32.1470588,5.63043478 L33.2647059,5.63043478 L33.2647059,3.5 L35.8824372,3.5 C37.3188392,3.5 38.5,4.68624416 38.5,6.13697639 L38.5,50.8630235 C38.5,52.3333376 37.3357812,53.5 35.8824372,53.5 L4.11756278,53.5 C2.68116079,53.5 1.5,52.3137558 1.5,50.8630235 L1.5,6.13697639 C1.5,4.66666232 2.66421887,3.5 4.11756278,3.5 L6.73529412,3.5 L6.73529412,5.63043478 L7.85294118,5.63043478 L7.85294118,3.5 L15.2058824,3.5 L15.2058824,5.63043478 L16.3235294,5.63043478 L16.3235294,3.5 L23.6764706,3.5 L23.6764706,5.63043478 L24.7941176,5.63043478 L24.7941176,3.5 L32.1470588,3.5 L32.1470588,5.63043478 Z M6.5,13.5 L6.5,14.5 L32.5,14.5 L32.5,13.5 L6.5,13.5 Z M6.5,19.5 L6.5,20.5 L32.5,20.5 L32.5,19.5 L6.5,19.5 Z M6.5,26.5 L6.5,27.5 L32.5,27.5 L32.5,26.5 L6.5,26.5 Z M6.5,31.5 L6.5,32.5 L32.5,32.5 L32.5,31.5 L6.5,31.5 Z M6.5,38.5 L6.5,39.5 L32.5,39.5 L32.5,38.5 L6.5,38.5 Z M6.5,44.5 L6.5,45.5 L32.5,45.5 L32.5,44.5 L6.5,44.5 Z" id="notebook-text"></path>
        </g>
    </g>
</svg>