<?xml version="1.0" encoding="utf-8"?>
<!-- Generator: Adobe Illustrator 16.0.4, SVG Export Plug-In . SVG Version: 6.00 Build 0)  -->
<!DOCTYPE svg PUBLIC "-//W3C//DTD SVG 1.1//EN" "http://www.w3.org/Graphics/SVG/1.1/DTD/svg11.dtd">
<svg version="1.1" id="Layer_1" xmlns="http://www.w3.org/2000/svg" xmlns:xlink="http://www.w3.org/1999/xlink" x="0px" y="0px"
	 width="60px" height="60px" viewBox="0 0 60 60" enable-background="new 0 0 60 60" xml:space="preserve">
<g id="Icon_Envelope">
	<path fill="#4F88C7" d="M59.29,13.354l-2.276-2.278L35.106,32.98c-2.802,2.806-7.358,2.806-10.164,0L3.038,11.076L0.76,13.354
		l16.298,16.298L0.76,45.952l2.278,2.276l16.298-16.298l3.154,3.151c1.927,1.93,4.557,2.983,7.359,2.983
		c2.806,0,5.433-1.054,7.357-2.983l3.155-3.151l16.3,16.298l2.276-2.276l-16.297-16.3L59.29,13.354z"/>
	<path fill="#4F88C7" d="M54.559,52.434H5.492c-2.979,0-5.256-2.281-5.256-5.255v-35.05c0-2.981,2.278-5.259,5.256-5.259h49.067
		c2.982,0,5.259,2.278,5.259,5.259v35.05C59.817,50.152,57.541,52.434,54.559,52.434z M5.492,10.375
		c-1.052,0-1.753,0.701-1.753,1.753v35.05c0,1.05,0.701,1.748,1.753,1.748h49.067c1.054,0,1.757-0.698,1.757-1.748v-35.05
		c0-1.052-0.703-1.753-1.757-1.753H5.492z"/>
</g>
</svg>
