<svg xmlns="http://www.w3.org/2000/svg" version="1.1" id="Layer_1" x="0" y="0" width="42" height="42" viewBox="0 0 25 25" enable-background="new 0 0 25 25" xml:space="preserve"><g id="TabBar-Icons"><g id="Hamburger-Round"><path id="Hamburger" fill="#4F89C8" d="M0 4c0-1.1 0.9-2 2-2h21C24.1 2 25 2.9 25 4c0 1.1-0.9 2-2 2H2C0.9 6 0 5.1 0 4L0 4zM0 12c0-1.1 0.9-2 2-2h21C24.1 10 25 10.9 25 12c0 1.1-0.9 2-2 2H2C0.9 14 0 13.1 0 12L0 12zM0 20c0-1.1 0.9-2 2-2h21C24.1 18 25 18.9 25 20c0 1.1-0.9 2-2 2H2C0.9 22 0 21.1 0 20L0 20z"/></g></g></svg>